<?xml version="1.0" encoding="UTF-8" standalone="no"?>
<svg
   xmlns:dc="http://purl.org/dc/elements/1.1/"
   xmlns:cc="http://creativecommons.org/ns#"
   xmlns:rdf="http://www.w3.org/1999/02/22-rdf-syntax-ns#"
   xmlns:svg="http://www.w3.org/2000/svg"
   xmlns="http://www.w3.org/2000/svg"
   version="1.1"
   id="レイヤー_1"
   x="0px"
   y="0px"
   width="128px"
   height="128px"
   viewBox="0 0 128 128"
   enable-background="new 0 0 128 128"
   xml:space="preserve"><metadata
     id="metadata4319"><rdf:RDF><cc:Work
         rdf:about=""><dc:format>image/svg+xml</dc:format><dc:type
           rdf:resource="http://purl.org/dc/dcmitype/StillImage" /><dc:title></dc:title></cc:Work></rdf:RDF></metadata><defs
     id="defs4317"><filter
       style="color-interpolation-filters:sRGB"
       id="filter4730-3"><feFlood
         flood-opacity="0.498039"
         flood-color="rgb(0,0,0)"
         result="flood"
         id="feFlood4732-6" /><feComposite
         in="flood"
         in2="SourceGraphic"
         operator="in"
         result="composite1"
         id="feComposite4734-7" /><feGaussianBlur
         in="composite1"
         stdDeviation="0.5"
         result="blur"
         id="feGaussianBlur4736-5" /><feOffset
         dx="0.5"
         dy="0.5"
         result="offset"
         id="feOffset4738-3" /><feComposite
         in="SourceGraphic"
         in2="offset"
         operator="over"
         result="composite2"
         id="feComposite4740-5" /></filter></defs><path
     style="fill:#ffc107;fill-opacity:1;filter:url(#filter4730-3)"
     d="M 128.07891,63.710147 A 63.924564,63.924564 0 0 1 64.154345,127.63472 63.924564,63.924564 0 0 1 0.22978089,63.710147 63.924564,63.924564 0 0 1 64.154345,-0.21441708 63.924564,63.924564 0 0 1 128.07891,63.710147 Z"
     id="path4321" /><g
     id="g4247"
     transform="matrix(0.80543844,0,0,0.83319532,13.416159,3.149781)"
     clip-path="none"><path
       d="m 64.35,72.12 c -3.31,0 -5.99,-2.23 -5.99,-4.98 l 0,-13.92 c 0,-2.74 2.68,-4.97 5.99,-4.97 3.3,0 5.99,2.22 5.99,4.97 l 0,13.92 c 0.01,2.74 -2.68,4.98 -5.99,4.98 z"
       id="path4249"
       style="fill:#ed6c30" /><path
       d="m 49.29,75.75 c -3.31,0 -5.98,-2.23 -5.98,-4.97 l 0,-13.91 c 0,-2.75 2.67,-4.98 5.98,-4.98 3.31,0 6,2.22 6,4.98 l 0,13.92 c -0.01,2.73 -2.7,4.96 -6,4.96 z"
       id="path4251"
       style="fill:#ed6c30" /><path
       style="fill:#2f2f2f"
       d="m 26.440001,95.779999 95.409999,0 0,15.910001 -95.409999,0 z"
       id="rect4253" /><path
       style="fill:#ed6c30"
       d="m 13.36,63.23 91.81,0 0,37.41 -91.81,0 z"
       id="rect4255" /><path
       style="fill:#ed6c30"
       d="m 77.940002,39.580002 43.919998,0 0,61.059998 -43.919998,0 z"
       id="rect4257" /><g
       id="g4259"><path
         d="m 35.04,63.24 c 4.26,0 7.72,8.38 7.72,18.71 0,10.33 -3.46,18.7 -7.72,18.7 -4.27,0 -7.73,-8.37 -7.73,-18.7 0.01,-10.33 3.47,-18.71 7.73,-18.71 z"
         id="path4261"
         style="fill:#2f2f2f" /><path
         d="m 35.04,101.69 c -4.92,0 -8.77,-8.67 -8.77,-19.74 0,-11.07 3.85,-19.74 8.77,-19.74 4.91,0 8.76,8.67 8.76,19.74 0,11.07 -3.85,19.74 -8.76,19.74 z m 0,-37.41 c -3.16,0 -6.69,7.26 -6.69,17.67 0,10.41 3.53,17.66 6.69,17.66 3.16,0 6.68,-7.25 6.68,-17.66 0,-10.41 -3.52,-17.67 -6.68,-17.67 z"
         id="path4263"
         style="fill:#fcc21b" /></g><path
       style="fill:#2f2f2f"
       d="m 13.79,63.209999 21.780001,0 0,37.930001 -21.780001,0 z"
       id="rect4265" /><path
       clip-path="none"
       style="fill:#2f2f2f"
       d="m 71.959999,32.66 55.890001,0 0,6.93 -55.890001,0 z"
       id="rect4267" /><path
       style="fill:#2f2f2f"
       d="m 44.49,33.93 -9.05,29.3 -14.52,0 -9.05,-29.3 z"
       id="polygon4269" /><path
       style="fill:#2f2f2f"
       d="m 44.49,33.93 -4.65,-10.37 -23.53,0 -4.44,10.37 z"
       id="polygon4271" /><path
       style="fill:#2f2f2f"
       d="m 13.36,100.64 -13.21,19.55 28.52,0 0,-19.55 z"
       id="polygon4273" /><path
       d="m 116.51,45.55 c 0,-1.54 -1.25,-2.8 -2.81,-2.8 l -12.51,0 c -1.56,0 -2.83,1.26 -2.83,2.8 l 0,21.64 c 0,1.55 1.27,2.8 2.83,2.8 l 12.51,0 c 1.56,0 2.81,-1.24 2.81,-2.8 l 0,-21.64 z"
       id="path4275"
       style="fill:#ffffff" /><path
       style="fill:#2f2f2f"
       d="m 0.15000001,114.26 28.51999999,0 0,5.93 -28.51999999,0 z"
       id="rect4277" /><g
       id="g4279"><path
         d="m 82.79,105.02 c 0,8.53 -6.91,15.44 -15.42,15.44 -8.53,0 -15.45,-6.91 -15.45,-15.44 0,-8.53 6.92,-15.44 15.45,-15.44 8.52,0 15.42,6.91 15.42,15.44 z"
         id="path4281"
         style="fill:#78a3ad" /></g><g
       id="g4283"><path
         d="m 76.25,105.02 c 0,4.91 -3.98,8.9 -8.89,8.9 -4.92,0 -8.91,-3.98 -8.91,-8.9 0,-4.92 3.99,-8.89 8.91,-8.89 4.91,0 8.89,3.98 8.89,8.89 z"
         id="path4285"
         style="fill:#2f2f2f" /></g><g
       id="g4287"><path
         d="m 113.68,105.02 c 0,8.53 -6.91,15.44 -15.43,15.44 -8.53,0 -15.45,-6.91 -15.45,-15.44 0,-8.53 6.92,-15.44 15.45,-15.44 8.52,0 15.43,6.91 15.43,15.44 z"
         id="path4289"
         style="fill:#78a3ad" /></g><g
       id="g4291"><path
         d="m 107.13,105.02 c 0,4.91 -3.98,8.9 -8.9,8.9 -4.91,0 -8.9,-3.98 -8.9,-8.9 0,-4.92 3.99,-8.89 8.9,-8.89 4.92,0 8.9,3.98 8.9,8.89 z"
         id="path4293"
         style="fill:#2f2f2f" /></g><path
       d="m 70.04,104.25 c -1.42,0 -2.58,-1.16 -2.58,-2.59 l 0,0 c 0,-1.42 1.16,-2.58 2.58,-2.58 l 25.54,0 c 1.42,0 2.57,1.15 2.57,2.58 l 0,0 c 0,1.43 -1.15,2.59 -2.57,2.59 l -25.54,0 z"
       id="path4295"
       style="fill:#ffffff" /><g
       id="g4297"><g
         id="g4299"><path
           d="m 50.47,109.57 c 0,6.02 -4.88,10.89 -10.89,10.89 -6.03,0 -10.91,-4.87 -10.91,-10.89 0,-6.02 4.87,-10.88 10.91,-10.88 6.01,-0.01 10.89,4.86 10.89,10.88 z"
           id="path4301"
           style="fill:#78a3ad" /></g></g><path
       style="fill:#78a3ad;fill-opacity:1"
       d="m 58.330002,54.029999 12.01,0 0,7.69 -12.01,0 z"
       id="rect4303" /><path
       style="fill:#78a3ad;fill-opacity:1"
       d="m 43.360001,56.799999 11.899999,0 0,5.03 -11.899999,0 z"
       id="rect4305" /><g
       id="g4307"
       clip-path="none"><path
         d="m 13.36,63.23 c 4.27,0 7.72,8.37 7.72,18.71 0,10.33 -3.45,18.7 -7.72,18.7 -4.26,0 -7.71,-8.38 -7.71,-18.7 0,-10.33 3.46,-18.71 7.71,-18.71 z"
         id="path4309"
         style="fill:#2f2f2f" /><path
         d="M 13.36,101.68 C 8.45,101.68 4.61,93 4.61,81.94 4.61,70.87 8.46,62.2 13.36,62.2 c 4.92,0 8.76,8.67 8.76,19.74 0.01,11.07 -3.84,19.74 -8.76,19.74 z m 0,-37.41 c -3.15,0 -6.67,7.25 -6.67,17.67 0,10.41 3.52,17.66 6.67,17.66 3.16,0 6.68,-7.25 6.68,-17.66 0.01,-10.41 -3.51,-17.67 -6.68,-17.67 z"
         id="path4311"
         style="fill:#fcc21b" /></g><path
       style="fill:#2f2f2f"
       d="m 10.59,32.689999 35.18,0 0,2.63 -35.18,0 z"
       id="rect4313" /></g></svg>